<svg xmlns="http://www.w3.org/2000/svg" width="25" height="23" viewBox="0 0 25 23" fill="none">
  <path d="M24.1334 12.7754C24.7192 12.1897 24.7192 11.2399 24.1334 10.6541L14.5875 1.10818C14.0017 0.522394 13.0519 0.522394 12.4662 1.10818C11.8804 1.69397 11.8804 2.64371 12.4662 3.2295L20.9514 11.7148L12.4662 20.2001C11.8804 20.7859 11.8804 21.7356 12.4662 22.3214C13.0519 22.9072 14.0017 22.9072 14.5875 22.3214L24.1334 12.7754ZM1.63354 10.2148C0.805119 10.2148 0.133545 10.8864 0.133545 11.7148C0.133545 12.5432 0.805119 13.2148 1.63354 13.2148V10.2148ZM23.0728 10.2148L1.63354 10.2148V13.2148L23.0728 13.2148V10.2148Z" fill="black"/>
</svg>