<svg width="20" height="20" viewBox="0 0 20 20" fill="none" xmlns="http://www.w3.org/2000/svg">
<path d="M10.3779 0.789528C8.49897 0.789528 6.66225 1.34669 5.09999 2.39056C3.53774 3.43443 2.3201 4.91812 1.60107 6.654C0.882046 8.38989 0.693915 10.3 1.06047 12.1428C1.42703 13.9856 2.33181 15.6784 3.6604 17.007C4.989 18.3355 6.68173 19.2403 8.52453 19.6069C10.3673 19.9734 12.2775 19.7853 14.0134 19.0663C15.7492 18.3473 17.2329 17.1296 18.2768 15.5674C19.3207 14.0051 19.8778 12.1684 19.8778 10.2895C19.8835 9.04033 19.6417 7.80242 19.1663 6.64725C18.6909 5.49208 17.9914 4.44254 17.1081 3.55925C16.2248 2.67596 15.1753 1.97642 14.0201 1.50102C12.8649 1.02563 11.627 0.783811 10.3779 0.789528ZM14.9983 6.27359L12.1051 12.0167L6.362 14.9099C6.27771 14.9392 6.18689 14.9441 6.09992 14.9242C6.01296 14.9042 5.93338 14.8602 5.87029 14.7971C5.8072 14.734 5.76315 14.6544 5.7432 14.5674C5.72324 14.4805 5.72818 14.3896 5.75745 14.3054L8.65062 8.56221L14.3938 5.66905C14.4781 5.63978 14.5689 5.63483 14.6558 5.65479C14.7428 5.67474 14.8224 5.71879 14.8855 5.78188C14.9486 5.84497 14.9926 5.92455 15.0126 6.01152C15.0325 6.09848 15.0276 6.1893 14.9983 6.27359ZM10.3779 9.42585C10.2071 9.42585 10.0401 9.4765 9.89807 9.57139C9.75605 9.66629 9.64536 9.80117 9.57999 9.95898C9.51462 10.1168 9.49752 10.2904 9.53084 10.458C9.56417 10.6255 9.64642 10.7794 9.7672 10.9002C9.88798 11.0209 10.0419 11.1032 10.2094 11.1365C10.3769 11.1698 10.5506 11.1527 10.7084 11.0874C10.8662 11.022 11.0011 10.9113 11.096 10.7693C11.1909 10.6273 11.2415 10.4603 11.2415 10.2895C11.2415 10.0604 11.1505 9.84076 10.9886 9.6788C10.8266 9.51683 10.6069 9.42585 10.3779 9.42585Z" fill="black"/>
</svg>
