<svg xmlns="http://www.w3.org/2000/svg" width="16" height="13" viewBox="0 0 16 13" fill="none">
  <path d="M14.6496 0.623863C14.6496 0.623863 16.0881 0.100345 15.9682 1.37175C15.9283 1.89527 15.5687 3.72759 15.289 5.70949L14.33 11.5804C14.33 11.5804 14.2501 12.4404 13.5308 12.59C12.8115 12.7396 11.7327 12.0665 11.5329 11.9169C11.3731 11.8048 8.53606 10.122 7.53708 9.29934C7.25736 9.07497 6.93769 8.62623 7.57702 8.10271L11.7727 4.36331C12.2521 3.91457 12.7316 2.86753 10.7337 4.13894L5.13959 7.69139C5.13959 7.69139 4.50026 8.06532 3.30154 7.72878L0.704239 6.9809C0.704239 6.9809 -0.254759 6.41999 1.38353 5.85905C5.37936 4.10151 10.2942 2.30659 14.6496 0.623863Z" fill="#C6D135"/>
</svg>